<svg width="151" height="53" viewBox="0 0 151 53" fill="none" xmlns="http://www.w3.org/2000/svg">
<path d="M55.152 35.744V40.28C54 40.52 52.872 40.7 51.768 40.82C50.664 40.94 49.356 41 47.844 41C45.9 41 44.256 40.832 42.912 40.496C41.592 40.16 40.524 39.572 39.708 38.732C38.916 37.868 38.34 36.656 37.98 35.096C37.62 33.536 37.44 31.532 37.44 29.084C37.44 26.732 37.62 24.8 37.98 23.288C38.34 21.776 38.916 20.612 39.708 19.796C40.524 18.956 41.592 18.38 42.912 18.068C44.256 17.732 45.9 17.564 47.844 17.564C49.356 17.564 50.664 17.624 51.768 17.744C52.872 17.84 54 18.02 55.152 18.284V22.964L55.044 23.036C54.036 22.796 53.064 22.628 52.128 22.532C51.192 22.412 50.04 22.352 48.672 22.352C47.568 22.352 46.656 22.436 45.936 22.604C45.24 22.748 44.688 23.048 44.28 23.504C43.872 23.96 43.584 24.632 43.416 25.52C43.272 26.408 43.2 27.596 43.2 29.084C43.2 30.644 43.272 31.904 43.416 32.864C43.584 33.8 43.872 34.508 44.28 34.988C44.688 35.468 45.24 35.792 45.936 35.96C46.656 36.128 47.568 36.212 48.672 36.212C50.016 36.212 51.156 36.176 52.092 36.104C53.052 36.008 54.012 35.84 54.972 35.6L55.152 35.744ZM63.9591 40.676H58.1991V16.448H63.9591V40.676ZM73.7249 16.628C73.7969 17.492 73.8329 18.212 73.8329 18.788C73.8329 19.124 73.8209 19.472 73.7969 19.832C73.7969 20.168 73.7729 20.552 73.7249 20.984C73.2209 21.08 72.7289 21.152 72.2489 21.2C71.7689 21.248 71.2889 21.272 70.8089 21.272C70.3529 21.272 69.8849 21.248 69.4049 21.2C68.9489 21.152 68.4809 21.08 68.0009 20.984C67.9529 20.576 67.9169 20.204 67.8929 19.868C67.8689 19.508 67.8569 19.16 67.8569 18.824C67.8569 18.512 67.8689 18.176 67.8929 17.816C67.9169 17.456 67.9529 17.06 68.0009 16.628C68.4809 16.508 68.9609 16.436 69.4409 16.412C69.9449 16.364 70.4369 16.34 70.9169 16.34C71.3729 16.34 71.8289 16.364 72.2849 16.412C72.7649 16.436 73.2449 16.508 73.7249 16.628ZM73.7249 40.676H67.9649V23.144H73.7249V40.676ZM83.4708 40.676H77.7108V23.144H83.1828L83.4708 26.348H83.5788C83.9148 25.268 84.5148 24.44 85.3788 23.864C86.2428 23.264 87.4428 22.964 88.9788 22.964C91.0668 22.964 92.6028 23.552 93.5868 24.728C94.5948 25.904 95.0988 27.944 95.0988 30.848V40.676H89.3388L89.3028 31.964C89.3028 30.62 89.0988 29.66 88.6908 29.084C88.2828 28.508 87.5148 28.22 86.3868 28.22C85.3308 28.22 84.5868 28.484 84.1548 29.012C83.7228 29.516 83.4948 30.392 83.4708 31.64V40.676ZM104.487 16.628C104.559 17.492 104.595 18.212 104.595 18.788C104.595 19.124 104.583 19.472 104.559 19.832C104.559 20.168 104.535 20.552 104.487 20.984C103.983 21.08 103.491 21.152 103.011 21.2C102.531 21.248 102.051 21.272 101.571 21.272C101.115 21.272 100.647 21.248 100.167 21.2C99.7106 21.152 99.2426 21.08 98.7626 20.984C98.7146 20.576 98.6786 20.204 98.6546 19.868C98.6306 19.508 98.6186 19.16 98.6186 18.824C98.6186 18.512 98.6306 18.176 98.6546 17.816C98.6786 17.456 98.7146 17.06 98.7626 16.628C99.2426 16.508 99.7226 16.436 100.203 16.412C100.707 16.364 101.199 16.34 101.679 16.34C102.135 16.34 102.591 16.364 103.047 16.412C103.527 16.436 104.007 16.508 104.487 16.628ZM104.487 40.676H98.7266V23.144H104.487V40.676ZM122.117 35.6V40.28C121.517 40.52 120.629 40.7 119.453 40.82C118.277 40.94 117.029 41 115.709 41C113.813 41 112.229 40.736 110.957 40.208C109.709 39.68 108.773 38.768 108.149 37.472C107.549 36.176 107.237 34.376 107.213 32.072C107.213 29.696 107.537 27.848 108.185 26.528C108.857 25.208 109.829 24.284 111.101 23.756C112.373 23.228 113.897 22.964 115.673 22.964C116.729 22.964 117.845 23.036 119.021 23.18C120.197 23.324 121.157 23.516 121.901 23.756L121.937 28.58L121.829 28.652C121.109 28.508 120.341 28.4 119.525 28.328C118.709 28.256 117.905 28.22 117.113 28.22C115.505 28.22 114.389 28.52 113.765 29.12C113.141 29.72 112.829 30.728 112.829 32.144C112.829 33.224 112.961 34.028 113.225 34.556C113.489 35.084 113.933 35.432 114.557 35.6C115.181 35.768 116.033 35.852 117.113 35.852C117.953 35.852 118.757 35.816 119.525 35.744C120.293 35.672 121.109 35.588 121.973 35.492L122.117 35.6Z" fill="#55ADF8"/>
<path d="M124.628 29.264C124.628 26.36 124.952 24.056 125.6 22.352C126.272 20.648 127.412 19.424 129.02 18.68C130.652 17.936 132.92 17.564 135.824 17.564C138.008 17.564 139.82 17.768 141.26 18.176C142.7 18.584 143.84 19.244 144.68 20.156C145.52 21.068 146.108 22.28 146.444 23.792C146.804 25.28 146.984 27.104 146.984 29.264C146.984 31.472 146.804 33.332 146.444 34.844C146.084 36.332 145.484 37.532 144.644 38.444C143.804 39.356 142.64 40.016 141.152 40.424V40.604C141.872 41.396 142.52 42.212 143.096 43.052C143.696 43.892 144.212 44.696 144.644 45.464V45.572H138.092L135.536 41C132.704 40.976 130.496 40.592 128.912 39.848C127.328 39.08 126.212 37.844 125.563 36.14C124.94 34.436 124.628 32.144 124.628 29.264ZM135.824 35.96C137.36 35.96 138.512 35.768 139.28 35.384C140.048 35 140.564 34.328 140.828 33.368C141.092 32.384 141.224 31.016 141.224 29.264C141.224 27.536 141.092 26.192 140.828 25.232C140.564 24.272 140.048 23.6 139.28 23.216C138.512 22.808 137.36 22.604 135.824 22.604C134.312 22.604 133.16 22.808 132.368 23.216C131.6 23.6 131.072 24.272 130.784 25.232C130.52 26.192 130.388 27.536 130.388 29.264C130.388 31.016 130.52 32.384 130.784 33.368C131.072 34.328 131.6 35 132.368 35.384C133.16 35.768 134.312 35.96 135.824 35.96Z" fill="#F65751"/>
<path d="M125 49H149" stroke="#4AA8F8" stroke-width="3" stroke-linecap="round"/>
<path fill-rule="evenodd" clip-rule="evenodd" d="M20.5 9C27.9558 9 34 15.0442 34 22.5C34 28.2166 30.4468 33.1034 25.4284 35.0722L21.2689 40.7576C21.1822 40.8766 21.0671 40.9737 20.9332 41.0408C20.7994 41.1078 20.6508 41.1429 20.5 41.1429C20.3492 41.1429 20.2006 41.1078 20.0668 41.0408C19.9329 40.9737 19.8178 40.8766 19.7311 40.7576L15.5716 35.0721C10.5532 33.1034 7 28.2166 7 22.5C7 15.0442 13.0442 9 20.5 9Z" fill="#F75751"/>
<path d="M26.2857 21.4999C26.2857 18.3046 23.6954 15.7142 20.5 15.7142C17.3046 15.7142 14.7143 18.3046 14.7143 21.4999C14.7143 24.6953 17.3046 27.2857 20.5 27.2857C23.6954 27.2857 26.2857 24.6953 26.2857 21.4999Z" fill="#BE2E28"/>
</svg>
