<svg width="30" height="36" viewBox="0 0 30 36" fill="none" xmlns="http://www.w3.org/2000/svg">
<path fill-rule="evenodd" clip-rule="evenodd" d="M15 0C23.2843 0 30 6.71573 30 15C30 21.3518 26.052 26.7815 20.476 28.9691L15.8544 35.2862C15.758 35.4184 15.6301 35.5264 15.4814 35.6009C15.3327 35.6754 15.1676 35.7143 15 35.7143C14.8324 35.7143 14.6673 35.6754 14.5186 35.6009C14.3699 35.5264 14.242 35.4184 14.1456 35.2862L9.52404 28.9691C3.94804 26.7815 0 21.3518 0 15C0 6.71573 6.71573 0 15 0Z" fill="#F75751"/>
<path d="M21.4286 13.8888C21.4286 10.3384 18.5505 7.46027 15.0001 7.46027C11.4497 7.46027 8.5715 10.3384 8.5715 13.8888C8.5715 17.4392 11.4497 20.3174 15.0001 20.3174C18.5505 20.3174 21.4286 17.4392 21.4286 13.8888Z" fill="#BE2E28"/>
</svg>
