<svg width="115" height="114" viewBox="0 0 115 114" fill="none" xmlns="http://www.w3.org/2000/svg">
<circle cx="57" cy="57" r="57" fill="white"/>
<path d="M40.0805 82V74.2443L58.202 57.4652C59.7432 55.9737 61.0358 54.6314 62.0798 53.4382C63.1404 52.245 63.9442 51.0767 64.491 49.9332C65.0379 48.7732 65.3113 47.522 65.3113 46.1797C65.3113 44.6882 64.9716 43.4039 64.2922 42.3267C63.6127 41.233 62.6847 40.3961 61.5081 39.816C60.3315 39.2195 58.9974 38.9212 57.5059 38.9212C55.9482 38.9212 54.5893 39.236 53.4292 39.8658C52.2692 40.4955 51.3743 41.3987 50.7446 42.5753C50.1148 43.7519 49.8 45.1522 49.8 46.7763H39.5834C39.5834 43.4453 40.3374 40.5535 41.8454 38.1009C43.3535 35.6482 45.4664 33.7507 48.1842 32.4084C50.902 31.066 54.0341 30.3949 57.5805 30.3949C61.2264 30.3949 64.3999 31.0412 67.1011 32.3338C69.8189 33.6098 71.9318 35.383 73.4399 37.6534C74.9479 39.9238 75.702 42.5256 75.702 45.4588C75.702 47.3812 75.3208 49.2786 74.5585 51.1513C73.8128 53.0239 72.4787 55.1037 70.5564 57.3906C68.634 59.661 65.9245 62.3871 62.4278 65.5689L54.9953 72.8523V73.2003H76.3731V82H40.0805Z" fill="#1A3953"/>
</svg>
