<svg width="116" height="114" viewBox="0 0 116 114" fill="none" xmlns="http://www.w3.org/2000/svg">
<circle cx="57" cy="57" r="57" fill="white"/>
<path d="M57.8726 82.696C54.1605 82.696 50.8544 82.058 47.9543 80.782C45.0708 79.4893 42.7921 77.7161 41.1183 75.4624C39.4611 73.192 38.6077 70.5736 38.558 67.6072H49.396C49.4623 68.8501 49.8683 69.9439 50.6141 70.8885C51.3764 71.8165 52.3873 72.5374 53.6468 73.0511C54.9062 73.5649 56.3231 73.8217 57.8975 73.8217C59.5381 73.8217 60.9881 73.5317 62.2476 72.9517C63.5071 72.3717 64.4931 71.5679 65.2057 70.5405C65.9183 69.513 66.2746 68.3281 66.2746 66.9858C66.2746 65.6269 65.8934 64.4254 65.1311 63.3814C64.3854 62.3208 63.3082 61.4922 61.8996 60.8956C60.5075 60.299 58.8503 60.0007 56.928 60.0007H52.1801V52.0959H56.928C58.5521 52.0959 59.9855 51.8142 61.2284 51.2507C62.4879 50.6873 63.4656 49.9084 64.1617 48.9141C64.8577 47.9032 65.2057 46.7266 65.2057 45.3842C65.2057 44.1082 64.8991 42.9896 64.286 42.0284C63.6894 41.0507 62.8442 40.2884 61.7504 39.7415C60.6733 39.1946 59.4138 38.9212 57.972 38.9212C56.5137 38.9212 55.1797 39.1863 53.9699 39.7166C52.7602 40.2303 51.7907 40.9678 51.0615 41.929C50.3324 42.8901 49.9429 44.017 49.8932 45.3097H39.5771C39.6269 42.3764 40.4637 39.7912 42.0878 37.554C43.7119 35.3168 45.8994 33.5684 48.6503 32.3089C51.4178 31.0329 54.5416 30.3949 58.0218 30.3949C61.535 30.3949 64.6091 31.0329 67.2441 32.3089C69.879 33.585 71.9256 35.3085 73.384 37.4794C74.8589 39.6338 75.588 42.0533 75.5715 44.7379C75.588 47.5883 74.7014 49.9664 72.9117 51.8722C71.1385 53.7779 68.8267 54.9877 65.9763 55.5014V55.8991C69.7216 56.3797 72.5719 57.6806 74.5274 59.8018C76.4995 61.9065 77.4772 64.5414 77.4607 67.7067C77.4772 70.6068 76.6404 73.1837 74.95 75.4375C73.2763 77.6913 70.9645 79.4645 68.0146 80.7571C65.0648 82.0497 61.6842 82.696 57.8726 82.696Z" fill="#1A3953"/>
</svg>
