<svg width="114" height="114" viewBox="0 0 114 114" fill="none" xmlns="http://www.w3.org/2000/svg">
<circle cx="57" cy="57" r="57" fill="white"/>
<path d="M57.1616 82.696C53.6483 82.696 50.5162 82.0497 47.7653 80.7571C45.0309 79.4645 42.86 77.683 41.2525 75.4126C39.645 73.1423 38.8081 70.5405 38.7418 67.6072H49.1822C49.2982 69.5793 50.1268 71.1785 51.668 72.4048C53.2092 73.6312 55.0404 74.2443 57.1616 74.2443C58.8519 74.2443 60.3434 73.8714 61.636 73.1257C62.9452 72.3634 63.9644 71.3111 64.6935 69.9688C65.4393 68.6098 65.8121 67.0521 65.8121 65.2955C65.8121 63.5057 65.431 61.9313 64.6687 60.5724C63.9229 59.2135 62.8872 58.1529 61.5614 57.3906C60.2357 56.6283 58.7193 56.2389 57.0124 56.2223C55.521 56.2223 54.0709 56.5289 52.6623 57.142C51.2702 57.7552 50.1848 58.5921 49.4059 59.6527L39.8356 57.9375L42.2468 31.0909H73.369V39.8906H51.1211L49.8036 52.6428H50.1019C50.9968 51.3833 52.3474 50.3393 54.1538 49.5107C55.9601 48.6821 57.9819 48.2678 60.2191 48.2678C63.2849 48.2678 66.0193 48.9886 68.4222 50.4304C70.8252 51.8722 72.7227 53.8525 74.1147 56.3714C75.5067 58.8738 76.1945 61.7573 76.1779 65.022C76.1945 68.4524 75.399 71.5017 73.7915 74.1697C72.2006 76.8213 69.9717 78.9093 67.1048 80.4339C64.2544 81.942 60.94 82.696 57.1616 82.696Z" fill="#1A3953"/>
</svg>
