<svg width="117" height="114" viewBox="0 0 117 114" fill="none" xmlns="http://www.w3.org/2000/svg">
<circle cx="57" cy="57" r="57" fill="white"/>
<path d="M59.0593 83.696C56.4409 83.6795 53.9137 83.2403 51.4776 82.3786C49.0581 81.5168 46.8872 80.1165 44.9648 78.1776C43.0425 76.2386 41.5179 73.67 40.391 70.4716C39.2807 67.2732 38.7255 63.3456 38.7255 58.6889C38.7421 54.4134 39.2309 50.5935 40.1921 47.2294C41.1699 43.8487 42.5619 40.9818 44.3683 38.6285C46.1912 36.2753 48.3704 34.4856 50.9059 33.2592C53.4414 32.0163 56.2835 31.3949 59.4322 31.3949C62.8294 31.3949 65.829 32.0578 68.4308 33.3835C71.0326 34.6927 73.1206 36.4742 74.695 38.728C76.2859 40.9818 77.247 43.509 77.5785 46.3097H66.9641C66.5498 44.5365 65.6798 43.1444 64.354 42.1335C63.0283 41.1226 61.3877 40.6172 59.4322 40.6172C56.1178 40.6172 53.5988 42.0589 51.8754 44.9425C50.1684 47.826 49.2984 51.7453 49.2653 56.7003H49.6133C50.3756 55.1922 51.4031 53.9079 52.6957 52.8473C54.0049 51.7701 55.488 50.9498 57.1452 50.3864C58.819 49.8063 60.5839 49.5163 62.44 49.5163C65.4561 49.5163 68.1407 50.2289 70.494 51.6541C72.8472 53.0627 74.7032 55.0017 76.0621 57.4709C77.421 59.9401 78.1005 62.7656 78.1005 65.9474C78.1005 69.3944 77.2968 72.4602 75.6893 75.1449C74.0984 77.8295 71.8694 79.9342 69.0025 81.4588C66.1521 82.9669 62.8377 83.7126 59.0593 83.696ZM59.0096 75.2443C60.6668 75.2443 62.15 74.8466 63.4592 74.0511C64.7683 73.2557 65.7958 72.1785 66.5415 70.8196C67.2873 69.4607 67.6602 67.9361 67.6602 66.2457C67.6602 64.5554 67.2873 63.0391 66.5415 61.6967C65.8124 60.3544 64.8015 59.2855 63.5089 58.4901C62.2163 57.6946 60.7414 57.2969 59.0842 57.2969C57.8413 57.2969 56.6895 57.5289 55.6289 57.9929C54.5849 58.4569 53.6651 59.1032 52.8697 59.9318C52.0908 60.7604 51.4776 61.7216 51.0302 62.8153C50.5827 63.8925 50.359 65.0443 50.359 66.2706C50.359 67.9112 50.7319 69.411 51.4776 70.7699C52.2399 72.1288 53.2674 73.2143 54.56 74.0263C55.8692 74.8383 57.3524 75.2443 59.0096 75.2443Z" fill="#1A3953"/>
</svg>
