<svg width="202" height="192" viewBox="0 0 202 192" fill="none" xmlns="http://www.w3.org/2000/svg">
<path d="M0 95.5452C0 120.885 10.0663 145.188 27.9845 163.106C45.9027 181.024 70.205 191.09 95.5452 191.09C120.885 191.09 145.188 181.024 163.106 163.106C181.024 145.188 191.09 120.885 191.09 95.5452C191.09 70.205 181.024 45.9027 163.106 27.9845C145.188 10.0663 120.885 0 95.5452 0C70.205 0 45.9027 10.0663 27.9845 27.9845C10.0663 45.9027 0 70.205 0 95.5452Z" fill="#DFF0FF"/>
<path d="M140.607 155.992H51.5108C49.9156 155.992 48.3858 155.358 47.2578 154.23C46.1299 153.102 45.4962 151.572 45.4962 149.977V34.6351C45.4962 32.9722 46.1568 31.3774 47.3327 30.2015C48.5086 29.0256 50.1034 28.365 51.7664 28.365H140.337C142 28.365 143.595 29.0256 144.77 30.2015C145.946 31.3774 146.607 32.9722 146.607 34.6351V149.977C146.608 151.57 145.976 153.098 144.851 154.226C143.726 155.354 142.2 155.989 140.607 155.992Z" fill="#B0D9FF"/>
<path d="M140.607 155.992H51.5108C49.9156 155.992 48.3858 155.358 47.2578 154.23C46.1299 153.102 45.4962 151.572 45.4962 149.977V34.6351C45.4962 32.9722 46.1568 31.3774 47.3327 30.2015C48.5086 29.0256 50.1034 28.365 51.7664 28.365H140.337C142 28.365 143.595 29.0256 144.77 30.2015C145.946 31.3774 146.607 32.9722 146.607 34.6351V149.977C146.608 151.57 145.976 153.098 144.851 154.226C143.726 155.354 142.2 155.989 140.607 155.992V155.992Z" stroke="#020064" stroke-width="3" stroke-linecap="round" stroke-linejoin="round"/>
<path d="M55.4449 38.3065H136.663V146.046H55.4449V38.3065Z" fill="white"/>
<path d="M136.663 75.2156L113.078 100.774C111.59 102.39 110.805 104.53 110.895 106.725C110.984 108.919 111.941 110.989 113.555 112.478C114.568 113.412 115.801 114.074 117.138 114.403L109.471 122.073L110.644 123.246L100.287 133.601C99.8229 134.062 99.5059 134.651 99.3755 135.292C99.2451 135.933 99.307 136.599 99.5536 137.205C99.8001 137.811 100.22 138.331 100.761 138.699C101.302 139.067 101.94 139.267 102.594 139.274C102.835 139.273 103.075 139.249 103.311 139.2C112.387 137.27 117.005 134.482 117.057 130.904L117.683 130.276L120.029 132.622L125.797 126.836C126.206 127.163 126.644 127.452 127.106 127.699C128.631 128.511 130.372 128.825 132.086 128.599C133.799 128.373 135.398 127.617 136.661 126.437L136.663 75.2156Z" fill="#B0D9FF"/>
<path d="M55.4449 38.3065H136.663V146.046H55.4449V38.3065Z" stroke="#020064" stroke-width="3" stroke-linecap="round" stroke-linejoin="round"/>
<path d="M67.0226 64.8274H117.669" stroke="#020064" stroke-width="3" stroke-linecap="round" stroke-linejoin="round"/>
<path d="M67.0226 79.7444H117.669" stroke="#020064" stroke-width="3" stroke-linecap="round" stroke-linejoin="round"/>
<path d="M67.0226 96.3215H102.322" stroke="#020064" stroke-width="3" stroke-linecap="round" stroke-linejoin="round"/>
<path d="M73.3692 23.3895H118.739C119.535 23.392 120.297 23.71 120.859 24.2737C121.421 24.8374 121.737 25.6008 121.737 26.3968V41.9229C121.737 42.7211 121.419 43.4866 120.855 44.051C120.291 44.6154 119.525 44.9325 118.727 44.9325H73.3716C72.5733 44.9325 71.8078 44.6154 71.2434 44.051C70.679 43.4866 70.3619 42.7211 70.3619 41.9229V26.3968C70.3619 25.5992 70.6787 24.8343 71.2427 24.2703C71.8067 23.7063 72.5716 23.3895 73.3692 23.3895Z" fill="white"/>
<path d="M73.3692 23.3895H118.739C119.535 23.392 120.297 23.71 120.859 24.2737C121.421 24.8374 121.737 25.6008 121.737 26.3968V41.9229C121.737 42.7211 121.419 43.4866 120.855 44.051C120.291 44.6154 119.525 44.9325 118.727 44.9325H73.3716C72.5733 44.9325 71.8078 44.6154 71.2434 44.051C70.679 43.4866 70.3619 42.7211 70.3619 41.9229V26.3968C70.3619 25.5992 70.6787 24.8343 71.2427 24.2703C71.8067 23.7063 72.5716 23.3895 73.3692 23.3895V23.3895Z" stroke="#020064" stroke-width="3" stroke-linecap="round" stroke-linejoin="round"/>
<path d="M81.9635 38.3065H110.142" stroke="#020064" stroke-width="3" stroke-linecap="round" stroke-linejoin="round"/>
<path d="M88.5943 21.7318C88.5943 22.8202 88.8087 23.898 89.2252 24.9036C89.6418 25.9093 90.2523 26.823 91.022 27.5926C91.7916 28.3623 92.7053 28.9728 93.711 29.3894C94.7166 29.8059 95.7944 30.0203 96.8828 30.0203C97.9713 30.0203 99.0491 29.8059 100.055 29.3894C101.06 28.9728 101.974 28.3623 102.744 27.5926C103.513 26.823 104.124 25.9093 104.54 24.9036C104.957 23.898 105.171 22.8202 105.171 21.7318C105.171 20.6433 104.957 19.5655 104.54 18.5599C104.124 17.5543 103.513 16.6405 102.744 15.8709C101.974 15.1012 101.06 14.4907 100.055 14.0741C99.0491 13.6576 97.9713 13.4432 96.8828 13.4432C95.7944 13.4432 94.7166 13.6576 93.711 14.0741C92.7053 14.4907 91.7916 15.1012 91.022 15.8709C90.2523 16.6405 89.6418 17.5543 89.2252 18.5599C88.8087 19.5655 88.5943 20.6433 88.5943 21.7318Z" fill="white"/>
<path d="M88.5943 21.7318C88.5943 22.8202 88.8087 23.898 89.2252 24.9036C89.6418 25.9093 90.2523 26.823 91.022 27.5926C91.7916 28.3623 92.7053 28.9728 93.711 29.3894C94.7166 29.8059 95.7944 30.0203 96.8828 30.0203C97.9713 30.0203 99.0491 29.8059 100.055 29.3894C101.06 28.9728 101.974 28.3623 102.744 27.5926C103.513 26.823 104.124 25.9093 104.54 24.9036C104.957 23.898 105.171 22.8202 105.171 21.7318C105.171 20.6433 104.957 19.5655 104.54 18.5599C104.124 17.5543 103.513 16.6405 102.744 15.8709C101.974 15.1012 101.06 14.4907 100.055 14.0741C99.0491 13.6576 97.9713 13.4432 96.8828 13.4432C95.7944 13.4432 94.7166 13.6576 93.711 14.0741C92.7053 14.4907 91.7916 15.1012 91.022 15.8709C90.2523 16.6405 89.6418 17.5543 89.2252 18.5599C88.8087 19.5655 88.5943 20.6433 88.5943 21.7318V21.7318Z" stroke="#020064" stroke-width="3" stroke-linecap="round" stroke-linejoin="round"/>
<path d="M130.949 95.2896L159.983 106.12L172.196 86.5329L140.628 78.0079L130.949 95.2896Z" fill="#D9EDFF"/>
<path d="M177.236 128.339L199.723 105.852C199.811 105.767 199.903 105.688 200 105.613C192.473 99.0828 190.617 85.2478 176.142 77.6902C157.088 67.7392 133.522 70.1135 112.822 95.9632C112.348 96.5258 111.991 97.1773 111.772 97.8795C111.553 98.5818 111.477 99.3206 111.547 100.053C111.617 100.785 111.832 101.496 112.181 102.144C112.529 102.792 113.003 103.364 113.575 103.826C114.147 104.289 114.806 104.632 115.512 104.837C116.219 105.042 116.959 105.103 117.69 105.018C118.42 104.934 119.127 104.704 119.768 104.342C120.408 103.981 120.971 103.495 121.421 102.914C122.794 101.217 124.173 99.6361 125.558 98.1727C126.045 98.6926 126.629 99.1128 127.276 99.41C148.933 115.808 153.312 117.891 158.61 119.952C166.803 123.136 170.419 124.675 176.443 130.128C176.48 129.454 176.762 128.818 177.236 128.339ZM162.398 93.3381C160.573 95.5461 158.034 97.0468 155.22 97.5807C152.406 98.1146 149.493 97.648 146.987 96.2618L134.179 90.4049C141.653 84.9349 149.194 82.6514 156.704 83.6307C163.093 84.4524 164.572 90.1039 162.398 93.3381Z" fill="white"/>
<path d="M59.5748 175.182C59.5748 176.282 63.362 177.337 70.1033 178.114C76.8446 178.892 85.9877 179.329 95.5213 179.329C105.055 179.329 114.198 178.892 120.939 178.114C127.681 177.337 131.468 176.282 131.468 175.182C131.468 174.082 127.681 173.028 120.939 172.25C114.198 171.472 105.055 171.035 95.5213 171.035C85.9877 171.035 76.8446 171.472 70.1033 172.25C63.362 173.028 59.5748 174.082 59.5748 175.182Z" fill="#B0D9FF"/>
<path d="M72.0817 113.546C71.2247 114.402 70.5922 115.457 70.2401 116.616C69.8881 117.776 69.8275 119.004 70.0636 120.192C70.2997 121.381 70.8253 122.492 71.5938 123.429C72.3623 124.366 73.3499 125.098 74.4692 125.562C75.5885 126.026 76.8049 126.206 78.0107 126.088C79.2164 125.969 80.3743 125.555 81.3817 124.882C82.389 124.208 83.2148 123.297 83.7859 122.229C84.3569 121.16 84.6556 119.967 84.6554 118.756V120.227C84.6397 121.011 84.7804 121.79 85.0695 122.519C85.3587 123.248 85.7903 123.912 86.3391 124.472C86.888 125.032 87.5431 125.477 88.266 125.781C88.989 126.084 89.7652 126.241 90.5494 126.241C91.3335 126.241 92.1098 126.084 92.8327 125.781C93.5557 125.477 94.2107 125.032 94.7596 124.472C95.3085 123.912 95.7401 123.248 96.0292 122.519C96.3183 121.79 96.4591 121.011 96.4433 120.227C96.4433 121.79 97.0642 123.289 98.1693 124.394C99.2744 125.499 100.773 126.12 102.336 126.12H106.755" stroke="#020064" stroke-width="3" stroke-linecap="round" stroke-linejoin="round"/>
<path d="M145.171 97.5493C145.897 97.5881 146.608 97.7694 147.263 98.083C147.919 98.3965 148.506 98.8361 148.992 99.3767C149.477 99.9173 149.851 100.548 150.093 101.233C150.335 101.919 150.439 102.645 150.4 103.37L149.428 121.319C149.389 122.044 149.207 122.754 148.893 123.409C148.579 124.064 148.139 124.651 147.598 125.136C147.058 125.621 146.427 125.994 145.742 126.236C145.057 126.477 144.331 126.581 143.606 126.541C142.88 126.502 142.17 126.32 141.515 126.006C140.86 125.692 140.273 125.252 139.788 124.712C139.303 124.171 138.93 123.54 138.689 122.855C138.447 122.17 138.344 121.444 138.383 120.719L139.355 102.773C139.434 101.309 140.091 99.9367 141.182 98.9571C142.272 97.9775 143.707 97.4712 145.171 97.5493Z" fill="#D9EDFF" stroke="#020064" stroke-width="3" stroke-linecap="round" stroke-linejoin="round"/>
<path d="M139.458 95.8247C140.752 96.5146 141.719 97.6902 142.147 99.093C142.575 100.496 142.428 102.011 141.739 103.306L135.139 116.152C134.45 117.446 133.274 118.414 131.871 118.842C130.468 119.27 128.953 119.123 127.658 118.433C126.363 117.744 125.396 116.568 124.968 115.165C124.54 113.762 124.687 112.246 125.377 110.952L131.977 98.1058C132.666 96.8116 133.842 95.8443 135.245 95.4165C136.648 94.9887 138.163 95.1356 139.458 95.8247Z" fill="#D9EDFF" stroke="#020064" stroke-width="3" stroke-linecap="round" stroke-linejoin="round"/>
<path d="M199.723 105.852C199.811 105.767 199.903 105.688 200 105.613C192.473 99.0828 190.617 85.2478 176.142 77.6902C157.088 67.7392 133.522 70.1135 112.822 95.9632C112.348 96.5258 111.991 97.1773 111.772 97.8795C111.553 98.5818 111.477 99.3206 111.547 100.053C111.617 100.785 111.832 101.496 112.181 102.144C112.529 102.792 113.003 103.364 113.575 103.826C114.147 104.289 114.806 104.632 115.512 104.837C116.219 105.042 116.959 105.103 117.69 105.018C118.42 104.934 119.127 104.704 119.768 104.342C120.408 103.981 120.971 103.495 121.421 102.914C122.794 101.217 124.173 99.6361 125.558 98.1727C126.045 98.6926 126.629 99.1128 127.276 99.41C148.933 115.808 153.312 117.891 158.61 119.952C166.803 123.136 170.419 124.675 176.443 130.128L199.723 105.852ZM162.408 93.3429C160.582 95.5524 158.041 97.0537 155.224 97.5867C152.408 98.1198 149.494 97.6511 146.987 96.2618L134.179 90.4049C141.653 84.9349 149.194 82.6514 156.704 83.6307C163.093 84.4524 164.572 90.1039 162.398 93.3381L162.408 93.3429Z" stroke="#020064" stroke-width="3" stroke-linecap="round" stroke-linejoin="round"/>
<path d="M157.609 94.4369L150.4 84.2924L172.853 68.3435C173.457 67.9143 174.14 67.6083 174.862 67.4429C175.585 67.2776 176.333 67.2562 177.063 67.38C177.794 67.5038 178.493 67.7703 179.121 68.1643C179.748 68.5583 180.292 69.0721 180.721 69.6764L181.393 70.6199C181.822 71.224 182.128 71.9067 182.293 72.6291C182.458 73.3515 182.48 74.0994 182.356 74.83C182.232 75.5607 181.966 76.2598 181.572 76.8875C181.178 77.5151 180.664 78.059 180.06 78.488L157.609 94.4369Z" fill="#B0D9FF"/>
<path d="M157.609 94.4369L150.4 84.2924L172.853 68.3435C173.457 67.9143 174.14 67.6083 174.862 67.4429C175.585 67.2776 176.333 67.2562 177.063 67.38C177.794 67.5038 178.493 67.7703 179.121 68.1643C179.748 68.5583 180.292 69.0721 180.721 69.6764L181.393 70.6199C181.822 71.224 182.128 71.9067 182.293 72.6291C182.458 73.3515 182.48 74.0994 182.356 74.83C182.232 75.5607 181.966 76.2598 181.572 76.8875C181.178 77.5151 180.664 78.059 180.06 78.488L157.609 94.4369Z" stroke="#020064" stroke-width="3" stroke-linecap="round" stroke-linejoin="round"/>
<path d="M151.382 78.5095L167.164 67.2997C167.603 66.9727 168.105 66.7382 168.638 66.6102C169.17 66.4823 169.724 66.4634 170.264 66.5549C170.804 66.6464 171.32 66.8464 171.781 67.1427C172.242 67.439 172.639 67.8255 172.946 68.279" stroke="#020064" stroke-width="3" stroke-linecap="round" stroke-linejoin="round"/>
<path d="M115.099 112.762L104.013 120.645C103.768 120.815 103.585 121.061 103.491 121.344C103.397 121.627 103.398 121.933 103.492 122.216C103.587 122.499 103.771 122.744 104.016 122.914C104.262 123.083 104.556 123.169 104.854 123.158C109.502 122.967 116.145 122.123 116.047 118.88L118.302 117.279L115.099 112.762Z" fill="#B0D9FF" stroke="#020064" stroke-width="3" stroke-linecap="round" stroke-linejoin="round"/>
<path d="M119.109 118.4L115.106 112.762C114.894 112.463 114.809 112.092 114.87 111.731C114.932 111.369 115.134 111.047 115.433 110.835L121.068 106.831L126.674 114.714L121.02 118.715C120.724 118.923 120.357 119.007 120 118.948C119.643 118.889 119.323 118.692 119.109 118.4Z" fill="white"/>
<path d="M119.109 118.4L115.106 112.762C114.894 112.463 114.809 112.092 114.87 111.731C114.932 111.369 115.134 111.047 115.433 110.835L121.068 106.831L126.674 114.714L121.02 118.715C120.724 118.923 120.357 119.007 120 118.948C119.643 118.889 119.323 118.692 119.109 118.4V118.4Z" stroke="#020064" stroke-width="3" stroke-linecap="round" stroke-linejoin="round"/>
<path d="M125.866 113.594L121.863 107.966C121.653 107.67 121.503 107.336 121.421 106.982C121.34 106.628 121.33 106.261 121.39 105.903C121.451 105.545 121.581 105.203 121.774 104.895C121.967 104.588 122.219 104.321 122.515 104.111L150.4 84.2924L157.607 94.4369L129.722 114.248C129.426 114.459 129.091 114.608 128.737 114.689C128.383 114.77 128.017 114.781 127.658 114.72C127.3 114.659 126.958 114.528 126.65 114.335C126.343 114.142 126.077 113.89 125.866 113.594Z" fill="#B0D9FF"/>
<path d="M125.866 113.594L121.863 107.966C121.653 107.67 121.503 107.336 121.421 106.982C121.34 106.628 121.33 106.261 121.39 105.903C121.451 105.545 121.581 105.203 121.774 104.895C121.967 104.588 122.219 104.321 122.515 104.111L150.4 84.2924L157.607 94.4369L129.722 114.248C129.426 114.459 129.091 114.608 128.737 114.689C128.383 114.77 128.017 114.781 127.658 114.72C127.3 114.659 126.958 114.528 126.65 114.335C126.343 114.142 126.077 113.89 125.866 113.594Z" stroke="#020064" stroke-width="3" stroke-linecap="round" stroke-linejoin="round"/>
<path d="M162.398 93.3381C160.573 95.5461 158.034 97.0468 155.22 97.5807C152.406 98.1146 149.493 97.648 146.987 96.2618L131.867 89.3348C131.204 89.0196 130.486 88.8392 129.753 88.8043C129.02 88.7694 128.288 88.8805 127.599 89.1313C126.909 89.3821 126.276 89.7675 125.737 90.265C125.198 90.7626 124.764 91.3624 124.459 92.0296C124.154 92.6967 123.984 93.4179 123.96 94.1511C123.937 94.8843 124.059 95.6149 124.32 96.3004C124.582 96.9859 124.977 97.6126 125.482 98.144C125.988 98.6754 126.594 99.1009 127.266 99.3957C148.924 115.796 153.302 117.877 158.6 119.938" fill="white"/>
<path d="M162.398 93.3381C160.573 95.5461 158.034 97.0468 155.22 97.5807C152.406 98.1146 149.493 97.648 146.987 96.2618L131.867 89.3348C131.204 89.0196 130.486 88.8392 129.753 88.8043C129.02 88.7694 128.288 88.8805 127.599 89.1313C126.909 89.3821 126.276 89.7675 125.737 90.265C125.198 90.7626 124.764 91.3624 124.459 92.0296C124.154 92.6967 123.984 93.4179 123.96 94.1511C123.937 94.8843 124.059 95.6149 124.32 96.3004C124.582 96.9859 124.977 97.6126 125.482 98.144C125.988 98.6754 126.594 99.1009 127.266 99.3957C148.924 115.796 153.302 117.877 158.6 119.938" stroke="#020064" stroke-width="3" stroke-linecap="round" stroke-linejoin="round"/>
<path d="M162.398 93.3381C160.573 95.5461 158.034 97.0468 155.22 97.5807C152.406 98.1146 149.493 97.648 146.987 96.2618L131.867 89.3348C131.204 89.0196 130.486 88.8392 129.753 88.8043C129.02 88.7694 128.288 88.8805 127.599 89.1313C126.909 89.3821 126.276 89.7675 125.737 90.265C125.198 90.7626 124.764 91.3624 124.459 92.0296C124.154 92.6967 123.984 93.4179 123.96 94.1511C123.937 94.8843 124.059 95.6149 124.32 96.3004C124.582 96.9859 124.977 97.6126 125.482 98.144C125.988 98.6754 126.594 99.1009 127.266 99.3957C148.924 115.796 153.302 117.877 158.6 119.938" fill="white"/>
<path d="M162.398 93.3381C160.573 95.5461 158.034 97.0468 155.22 97.5807C152.406 98.1146 149.493 97.648 146.987 96.2618L131.867 89.3348C131.204 89.0196 130.486 88.8392 129.753 88.8043C129.02 88.7694 128.288 88.8805 127.599 89.1313C126.909 89.3821 126.276 89.7675 125.737 90.265C125.198 90.7626 124.764 91.3624 124.459 92.0296C124.154 92.6967 123.984 93.4179 123.96 94.1511C123.937 94.8843 124.059 95.6149 124.32 96.3004C124.582 96.9859 124.977 97.6126 125.482 98.144C125.988 98.6754 126.594 99.1009 127.266 99.3957C148.924 115.796 153.302 117.877 158.6 119.938" stroke="#020064" stroke-width="3" stroke-linecap="round" stroke-linejoin="round"/>
</svg>
