<svg width="202" height="200" viewBox="0 0 202 200" fill="none" xmlns="http://www.w3.org/2000/svg">
<path d="M6.4202 100C6.4202 113.132 8.9496 126.136 13.864 138.268C18.7784 150.401 25.9816 161.425 35.0622 170.711C44.1428 179.997 54.9231 187.362 66.7875 192.388C78.6519 197.413 91.3681 200 104.21 200C117.052 200 129.768 197.413 141.633 192.388C153.497 187.362 164.277 179.997 173.358 170.711C182.439 161.425 189.642 150.401 194.556 138.268C199.471 126.136 202 113.132 202 100C202 86.8678 199.471 73.8642 194.556 61.7317C189.642 49.5991 182.439 38.5752 173.358 29.2893C164.277 20.0035 153.497 12.6375 141.633 7.61205C129.768 2.58658 117.052 0 104.21 0C91.3681 0 78.6519 2.58658 66.7875 7.61205C54.9231 12.6375 44.1428 20.0035 35.0622 29.2893C25.9816 38.5752 18.7784 49.5991 13.864 61.7317C8.9496 73.8642 6.4202 86.8678 6.4202 100Z" fill="#DFF0FF"/>
<path d="M76.2642 80.3925L60.2878 96.73C59.7691 97.2597 59.1086 97.6204 58.3896 97.7664C57.6706 97.9125 56.9255 97.8374 56.2482 97.5506C55.5709 97.2638 54.992 96.7783 54.5844 96.1552C54.1768 95.5322 53.959 94.7996 53.9583 94.05V80.3925H37.378C35.0121 80.3925 32.743 79.4314 31.07 77.7206C29.397 76.0098 28.4572 73.6895 28.4572 71.27V24.125C28.4572 21.7054 29.3969 19.3848 31.0699 17.6736C32.7428 15.9624 35.0118 15.0007 37.378 15H104.445C106.811 15.0007 109.08 15.9624 110.753 17.6736C112.426 19.3848 113.366 21.7054 113.366 24.125V71.27C113.366 73.6895 112.426 76.0098 110.753 77.7206C109.08 79.4314 106.811 80.3925 104.445 80.3925H76.2642Z" fill="white" stroke="#020064" stroke-width="3" stroke-linecap="round" stroke-linejoin="round"/>
<path d="M101.922 37.9578C102.659 37.3363 103.124 36.4411 103.216 35.4688C103.308 34.4966 103.018 33.5269 102.411 32.7728L98.4066 27.7953C97.7992 27.042 96.9242 26.5661 95.9738 26.4724C95.0235 26.3786 94.0756 26.6746 93.3386 27.2953L70.3947 46.6003L65.246 40.2003C64.6387 39.447 63.7636 38.9711 62.8133 38.8774C61.8629 38.7836 60.9151 39.0796 60.1781 39.7003L55.3106 43.7953C54.5737 44.4168 54.1083 45.3121 54.0166 46.2843C53.925 47.2566 54.2145 48.2263 54.8216 48.9803L59.9703 55.3803L66.263 63.2003C66.8704 63.9537 67.7454 64.4295 68.6958 64.5233C69.6462 64.617 70.594 64.321 71.331 63.7003L78.9806 57.2653L101.922 37.9578Z" fill="#B0D9FF" stroke="#020064" stroke-width="3" stroke-linecap="round" stroke-linejoin="round"/>
<path d="M120.763 72.6249L136.596 88.8174C137.108 89.3468 137.763 89.7082 138.477 89.8553C139.191 90.0025 139.932 89.9288 140.605 89.6437C141.278 89.3586 141.853 88.875 142.256 88.2545C142.659 87.6341 142.872 86.9049 142.869 86.1599V72.6249H170.983C173.329 72.6249 175.578 71.6722 177.236 69.9764C178.894 68.2806 179.826 65.9806 179.826 63.5824V16.8599C179.826 14.4617 178.894 12.1617 177.236 10.4659C175.578 8.77012 173.329 7.81743 170.983 7.81743H104.501C102.156 7.81743 99.9065 8.77012 98.2482 10.4659C96.5899 12.1617 95.6582 14.4617 95.6582 16.8599V63.5824C95.6582 65.9806 96.5899 68.2806 98.2482 69.9764C99.9065 71.6722 102.156 72.6249 104.501 72.6249H120.763Z" fill="white" stroke="#020064" stroke-width="3" stroke-linecap="round" stroke-linejoin="round"/>
<path d="M161.195 31.9825C161.931 31.361 162.397 30.4657 162.489 29.4935C162.58 28.5212 162.291 27.5515 161.684 26.7975L157.679 21.82C157.072 21.0666 156.197 20.5908 155.246 20.497C154.296 20.4033 153.348 20.6993 152.611 21.32L129.667 40.625L124.519 34.225C123.911 33.4716 123.036 32.9958 122.086 32.902C121.135 32.8083 120.188 33.1043 119.451 33.725L114.583 37.82C113.846 38.4415 113.381 39.3368 113.289 40.309C113.197 41.2812 113.487 42.2509 114.094 43.005L119.243 49.405L125.536 57.225C126.143 57.9783 127.018 58.4542 127.968 58.5479C128.919 58.6417 129.867 58.3457 130.604 57.725L138.253 51.29L161.195 31.9825Z" fill="#B0D9FF" stroke="#020064" stroke-width="3" stroke-linecap="round" stroke-linejoin="round"/>
<path d="M2 143.658C2 154.403 6.17445 164.709 13.605 172.308C21.0356 179.906 31.1136 184.175 41.622 184.175C52.1304 184.175 62.2085 179.906 69.639 172.308C77.0696 164.709 81.2441 154.403 81.2441 143.658C81.2441 132.912 77.0696 122.606 69.639 115.007C62.2085 107.409 52.1304 103.14 41.622 103.14C31.1136 103.14 21.0356 107.409 13.605 115.007C6.17445 122.606 2 132.912 2 143.658Z" fill="#B0D9FF" stroke="#020064" stroke-width="3" stroke-linecap="round" stroke-linejoin="round"/>
<path d="M28.022 136.063C28.022 137.271 28.4915 138.43 29.3273 139.285C30.1631 140.14 31.2967 140.62 32.4787 140.62C33.6608 140.62 34.7944 140.14 35.6302 139.285C36.466 138.43 36.9355 137.271 36.9355 136.063C36.9355 134.854 36.466 133.695 35.6302 132.84C34.7944 131.985 33.6608 131.505 32.4787 131.505C31.2967 131.505 30.1631 131.985 29.3273 132.84C28.4915 133.695 28.022 134.854 28.022 136.063Z" fill="#020064"/>
<path d="M58.1974 136.063C58.1974 137.271 58.6669 138.43 59.5027 139.285C60.3386 140.14 61.4721 140.62 62.6542 140.62C63.8362 140.62 64.9698 140.14 65.8056 139.285C66.6414 138.43 67.1109 137.271 67.1109 136.063C67.1109 134.854 66.6414 133.695 65.8056 132.84C64.9698 131.985 63.8362 131.505 62.6542 131.505C61.4721 131.505 60.3386 131.985 59.5027 132.84C58.6669 133.695 58.1974 134.854 58.1974 136.063Z" fill="#020064"/>
<path d="M61.5149 153.629C61.4663 157.379 59.9754 160.959 57.3648 163.593C54.7543 166.228 51.2341 167.705 47.5664 167.705C43.8987 167.705 40.3785 166.228 37.7679 163.593C35.1574 160.959 33.6664 157.379 33.6179 153.629L61.5149 153.629Z" fill="white" stroke="#020064" stroke-width="3" stroke-linecap="round" stroke-linejoin="round"/>
<path d="M118.663 135.173C118.663 140.493 119.688 145.762 121.679 150.678C123.67 155.594 126.589 160.06 130.268 163.823C133.948 167.585 138.315 170.57 143.123 172.606C147.93 174.642 153.082 175.69 158.285 175.69C163.489 175.69 168.641 174.642 173.448 172.606C178.255 170.57 182.623 167.585 186.302 163.823C189.982 160.06 192.9 155.594 194.891 150.678C196.882 145.762 197.907 140.493 197.907 135.173C197.907 129.852 196.882 124.583 194.891 119.667C192.9 114.751 189.982 110.285 186.302 106.522C182.623 102.76 178.255 99.7754 173.448 97.7392C168.641 95.703 163.489 94.655 158.285 94.655C153.082 94.655 147.93 95.703 143.123 97.7392C138.315 99.7754 133.948 102.76 130.268 106.522C126.589 110.285 123.67 114.751 121.679 119.667C119.688 124.583 118.663 129.852 118.663 135.173Z" fill="white" stroke="#020064" stroke-width="3" stroke-linecap="round" stroke-linejoin="round"/>
<path d="M162.974 127.577C162.974 128.176 163.09 128.769 163.314 129.322C163.538 129.875 163.866 130.377 164.28 130.8C164.694 131.223 165.185 131.559 165.726 131.788C166.266 132.017 166.846 132.135 167.431 132.135C168.016 132.135 168.596 132.017 169.137 131.788C169.677 131.559 170.169 131.223 170.583 130.8C170.996 130.377 171.325 129.875 171.549 129.322C171.773 128.769 171.888 128.176 171.888 127.577C171.888 126.979 171.773 126.386 171.549 125.833C171.325 125.28 170.996 124.778 170.583 124.355C170.169 123.932 169.677 123.596 169.137 123.367C168.596 123.138 168.016 123.02 167.431 123.02C166.846 123.02 166.266 123.138 165.726 123.367C165.185 123.596 164.694 123.932 164.28 124.355C163.866 124.778 163.538 125.28 163.314 125.833C163.09 126.386 162.974 126.979 162.974 127.577Z" fill="#020064"/>
<path d="M132.799 127.577C132.799 128.786 133.268 129.945 134.104 130.8C134.94 131.655 136.074 132.135 137.256 132.135C138.438 132.135 139.571 131.655 140.407 130.8C141.243 129.945 141.712 128.786 141.712 127.577C141.712 126.369 141.243 125.21 140.407 124.355C139.571 123.5 138.438 123.02 137.256 123.02C136.074 123.02 134.94 123.5 134.104 124.355C133.268 125.21 132.799 126.369 132.799 127.577Z" fill="#020064"/>
<path d="M166.297 144.958C166.321 146.847 165.979 148.722 165.289 150.474C164.599 152.227 163.575 153.822 162.277 155.166C160.98 156.511 159.434 157.579 157.729 158.307C156.025 159.036 154.196 159.411 152.348 159.411C150.501 159.411 148.672 159.036 146.967 158.307C145.263 157.579 143.717 156.511 142.419 155.166C141.122 153.822 140.098 152.227 139.408 150.474C138.718 148.722 138.375 146.847 138.4 144.958H166.297Z" fill="#B0D9FF" stroke="#020064" stroke-width="3" stroke-linecap="round" stroke-linejoin="round"/>
</svg>
