<svg width="226" height="194" viewBox="0 0 226 194" fill="none" xmlns="http://www.w3.org/2000/svg">
<path d="M20.9872 95.958C20.9872 119.647 30.3977 142.366 47.1484 159.117C63.8992 175.868 86.6181 185.278 110.307 185.278C133.996 185.278 156.715 175.868 173.466 159.117C190.217 142.366 199.627 119.647 199.627 95.958C199.627 72.2689 190.217 49.55 173.466 32.7992C156.715 16.0484 133.996 6.63795 110.307 6.63795C86.6181 6.63795 63.8992 16.0484 47.1484 32.7992C30.3977 49.55 20.9872 72.2689 20.9872 95.958Z" fill="#DFF0FF"/>
<path d="M54.8507 44.11L24.071 113.534" stroke="#020064" stroke-width="3" stroke-linecap="round" stroke-linejoin="round"/>
<path d="M83.087 159.369L24.071 113.534" stroke="#020064" stroke-width="3" stroke-linecap="round" stroke-linejoin="round"/>
<path d="M175.172 90.7261L144.584 144.399" stroke="#00AED9" stroke-width="3" stroke-linecap="round" stroke-linejoin="round"/>
<path d="M54.8507 44.1099L134.906 27.0654" stroke="#020064" stroke-width="3" stroke-linecap="round" stroke-linejoin="round"/>
<path d="M175.171 90.7261L134.906 27.0654" stroke="#020064" stroke-width="3" stroke-linecap="round" stroke-linejoin="round"/>
<path d="M175.172 90.7261L109.666 105.375L24.071 113.534" stroke="#020064" stroke-width="3" stroke-linecap="round" stroke-linejoin="round"/>
<path d="M54.8507 44.11L83.087 159.369" stroke="#020064" stroke-width="3" stroke-linecap="round" stroke-linejoin="round"/>
<path d="M134.906 27.0654L109.666 105.375" stroke="#020064" stroke-width="3" stroke-linecap="round" stroke-linejoin="round"/>
<path d="M54.8507 44.11L144.584 144.399" stroke="#020064" stroke-width="3" stroke-linecap="round" stroke-linejoin="round"/>
<path d="M144.584 144.399L83.087 159.369" stroke="#020064" stroke-width="3" stroke-linecap="round" stroke-linejoin="round"/>
<path d="M24.071 113.534L134.906 27.0654" stroke="#020064" stroke-width="3" stroke-linecap="round" stroke-linejoin="round"/>
<path d="M2 109.398C2 112.631 2.63661 115.831 3.87349 118.817C5.11036 121.803 6.92328 124.516 9.20873 126.802C11.4942 129.087 14.2074 130.9 17.1935 132.137C20.1796 133.374 23.38 134.011 26.6121 134.011C29.8443 134.011 33.0447 133.374 36.0308 132.137C39.0169 130.9 41.7301 129.087 44.0156 126.802C46.301 124.516 48.1139 121.803 49.3508 118.817C50.5877 115.831 51.2243 112.631 51.2243 109.398C51.2243 106.166 50.5877 102.966 49.3508 99.9798C48.1139 96.9937 46.301 94.2805 44.0156 91.995C41.7301 89.7096 39.0169 87.8967 36.0308 86.6598C33.0447 85.4229 29.8443 84.7863 26.6121 84.7863C23.38 84.7863 20.1796 85.4229 17.1935 86.6598C14.2074 87.8967 11.4942 89.7096 9.20873 91.995C6.92328 94.2805 5.11036 96.9937 3.87349 99.9798C2.63661 102.966 2 106.166 2 109.398Z" fill="white" stroke="#020064" stroke-width="3" stroke-linecap="round" stroke-linejoin="round"/>
<path d="M39.7533 115.666C39.7485 115.132 39.5589 114.615 39.2166 114.205C38.8743 113.794 38.4004 113.514 37.8754 113.413V111.911C37.8964 110.417 37.6204 108.934 37.0634 107.548C36.5064 106.163 35.6795 104.901 34.6308 103.838C33.5821 102.774 32.3325 101.929 30.9546 101.353C29.5767 100.777 28.0979 100.48 26.6043 100.48C25.1107 100.48 23.6319 100.777 22.254 101.353C20.8761 101.929 19.6265 102.774 18.5778 103.838C17.5291 104.901 16.7022 106.163 16.1452 107.548C15.5882 108.934 15.3122 110.417 15.3332 111.911V113.413C14.7857 113.516 14.2939 113.814 13.9494 114.251C13.6048 114.689 13.4308 115.237 13.4597 115.793C13.4886 116.35 13.7185 116.877 14.1066 117.276C14.4947 117.676 15.0147 117.921 15.5699 117.966C16.0991 120.501 17.4849 122.777 19.4945 124.41C21.504 126.044 24.0147 126.935 26.6043 126.935C29.1939 126.935 31.7046 126.044 33.7142 124.41C35.7237 122.777 37.1095 120.501 37.6387 117.966C38.2141 117.915 38.7496 117.651 39.1406 117.225C39.5316 116.8 39.7501 116.244 39.7533 115.666Z" fill="white" stroke="#020064" stroke-width="3" stroke-linecap="round" stroke-linejoin="round"/>
<path d="M19.1003 117.075C19.1003 117.449 19.2488 117.808 19.513 118.072C19.7773 118.336 20.1356 118.485 20.5093 118.485C20.883 118.485 21.2414 118.336 21.5057 118.072C21.7699 117.808 21.9184 117.449 21.9184 117.075C21.9184 116.702 21.7699 116.343 21.5057 116.079C21.2414 115.815 20.883 115.666 20.5093 115.666C20.1356 115.666 19.7773 115.815 19.513 116.079C19.2488 116.343 19.1003 116.702 19.1003 117.075Z" fill="#B0D9FF"/>
<path d="M31.3081 117.075C31.3081 117.261 31.3446 117.444 31.4154 117.615C31.4862 117.786 31.59 117.941 31.7208 118.072C31.8517 118.203 32.007 118.306 32.178 118.377C32.3489 118.448 32.5321 118.485 32.7172 118.485C32.9022 118.485 33.0854 118.448 33.2564 118.377C33.4273 118.306 33.5827 118.203 33.7135 118.072C33.8443 117.941 33.9481 117.786 34.0189 117.615C34.0897 117.444 34.1262 117.261 34.1262 117.075C34.1262 116.89 34.0897 116.707 34.0189 116.536C33.9481 116.365 33.8443 116.21 33.7135 116.079C33.5827 115.948 33.4273 115.845 33.2564 115.774C33.0854 115.703 32.9022 115.666 32.7172 115.666C32.5321 115.666 32.3489 115.703 32.178 115.774C32.007 115.845 31.8517 115.948 31.7208 116.079C31.59 116.21 31.4862 116.365 31.4154 116.536C31.3446 116.707 31.3081 116.89 31.3081 117.075Z" fill="#B0D9FF"/>
<path d="M23.7964 120.447C24.6302 121.004 25.6105 121.302 26.6133 121.302C27.6161 121.302 28.5964 121.004 29.4302 120.447" stroke="#020064" stroke-width="3" stroke-linecap="round" stroke-linejoin="round"/>
<path d="M38.8222 109.093C38.8441 107.475 38.5445 105.87 37.9407 104.37C37.337 102.869 36.4412 101.504 35.3053 100.352C34.1694 99.2009 32.8161 98.2867 31.324 97.6627C29.8319 97.0387 28.2306 96.7174 26.6133 96.7174C24.9959 96.7174 23.3947 97.0387 21.9026 97.6627C20.4105 98.2867 19.0572 99.2009 17.9213 100.352C16.7854 101.504 15.8896 102.869 15.2859 104.37C14.6821 105.87 14.3825 107.475 14.4044 109.093V111.911C14.4044 112.159 14.5032 112.398 14.679 112.574C14.8549 112.75 15.0935 112.848 15.3422 112.848H17.2224C17.4711 112.848 17.7097 112.75 17.8856 112.574C18.0615 112.398 18.1603 112.159 18.1603 111.911C18.1612 110.792 18.3868 109.685 18.8237 108.656C19.2606 107.626 19.8999 106.695 20.7036 105.917C20.909 105.716 21.158 105.564 21.4314 105.474C21.7048 105.384 21.9952 105.359 22.2801 105.399C23.4653 105.547 24.5664 106.089 25.4064 106.938C26.5162 108.082 27.9797 108.819 29.5601 109.028C31.1405 109.238 32.7453 108.908 34.1151 108.092C34.5864 109.007 34.889 110 35.0083 111.022C35.0351 111.266 35.151 111.493 35.3338 111.657C35.5166 111.822 35.7536 111.914 35.9997 111.915H37.8777C38.1266 111.914 38.3651 111.815 38.541 111.639C38.7168 111.463 38.8155 111.224 38.8155 110.975L38.8222 109.093Z" fill="white" stroke="#020064" stroke-width="3" stroke-linecap="round" stroke-linejoin="round"/>
<path d="M38.8222 109.093C38.8441 107.475 38.5445 105.87 37.9407 104.37C37.337 102.869 36.4412 101.504 35.3053 100.352C34.1694 99.2009 32.8161 98.2867 31.324 97.6627C29.8319 97.0387 28.2306 96.7174 26.6133 96.7174C24.9959 96.7174 23.3947 97.0387 21.9026 97.6627C20.4105 98.2867 19.0572 99.2009 17.9213 100.352C16.7854 101.504 15.8896 102.869 15.2859 104.37C14.6821 105.87 14.3825 107.475 14.4044 109.093V111.911C14.4044 112.159 14.5032 112.398 14.679 112.574C14.8549 112.75 15.0935 112.848 15.3422 112.848H17.2224C17.4711 112.848 17.7097 112.75 17.8856 112.574C18.0615 112.398 18.1603 112.159 18.1603 111.911C18.1612 110.792 18.3868 109.685 18.8237 108.656C19.2606 107.626 19.8999 106.695 20.7036 105.917C20.909 105.716 21.158 105.564 21.4314 105.474C21.7048 105.384 21.9952 105.359 22.2801 105.399C23.4653 105.547 24.5664 106.089 25.4064 106.938C26.5162 108.082 27.9797 108.819 29.5601 109.028C31.1405 109.238 32.7453 108.908 34.1151 108.092C34.5864 109.007 34.889 110 35.0083 111.022C35.0351 111.266 35.151 111.493 35.3338 111.657C35.5166 111.822 35.7536 111.914 35.9997 111.915H37.8777C38.1266 111.914 38.3651 111.815 38.541 111.639C38.7168 111.463 38.8155 111.224 38.8155 110.975L38.8222 109.093Z" stroke="#020064" stroke-width="3" stroke-linecap="round" stroke-linejoin="round"/>
<path d="M34.115 108.092C34.2143 108.033 34.294 107.947 34.3442 107.843C34.3945 107.739 34.413 107.622 34.3975 107.508C34.3821 107.394 34.3332 107.287 34.2572 107.2C34.1811 107.113 34.0812 107.051 33.9699 107.02C32.4958 106.605 31.22 105.674 30.3747 104.397" fill="#FFDF3D"/>
<path d="M34.115 108.092C34.2143 108.033 34.294 107.947 34.3442 107.843C34.3945 107.739 34.413 107.622 34.3975 107.508C34.3821 107.394 34.3332 107.287 34.2572 107.2C34.1811 107.113 34.0812 107.051 33.9699 107.02C32.4958 106.605 31.22 105.674 30.3747 104.397" stroke="#020064" stroke-width="3" stroke-linecap="round" stroke-linejoin="round"/>
<path d="M20.9783 113.317C20.9783 113.502 21.0147 113.686 21.0855 113.857C21.1564 114.028 21.2601 114.183 21.391 114.314C21.5218 114.445 21.6772 114.548 21.8481 114.619C22.0191 114.69 22.2023 114.726 22.3873 114.726C22.5724 114.726 22.7556 114.69 22.9265 114.619C23.0975 114.548 23.2528 114.445 23.3836 114.314C23.5145 114.183 23.6183 114.028 23.6891 113.857C23.7599 113.686 23.7963 113.502 23.7963 113.317C23.7963 113.132 23.7599 112.949 23.6891 112.778C23.6183 112.607 23.5145 112.452 23.3836 112.321C23.2528 112.19 23.0975 112.086 22.9265 112.016C22.7556 111.945 22.5724 111.908 22.3873 111.908C22.2023 111.908 22.0191 111.945 21.8481 112.016C21.6772 112.086 21.5218 112.19 21.391 112.321C21.2601 112.452 21.1564 112.607 21.0855 112.778C21.0147 112.949 20.9783 113.132 20.9783 113.317Z" fill="#020064"/>
<path d="M29.4302 113.317C29.4302 113.691 29.5787 114.049 29.8429 114.314C30.1071 114.578 30.4655 114.726 30.8392 114.726C31.2129 114.726 31.5713 114.578 31.8356 114.314C32.0998 114.049 32.2483 113.691 32.2483 113.317C32.2483 112.944 32.0998 112.585 31.8356 112.321C31.5713 112.057 31.2129 111.908 30.8392 111.908C30.4655 111.908 30.1071 112.057 29.8429 112.321C29.5787 112.585 29.4302 112.944 29.4302 113.317Z" fill="#020064"/>
<path d="M26.6122 96.8825C28.2116 96.8799 29.7959 97.1926 31.2745 97.8025C32.753 98.4125 34.0969 99.3079 35.2293 100.437C35.7287 99.6545 35.9972 98.7467 36.0042 97.8181C36.0042 94.1872 31.7994 91.2419 26.6122 91.2419C21.4249 91.2419 17.2336 94.1872 17.2336 97.8181C17.2372 98.7456 17.5018 99.6533 17.9973 100.437C19.1293 99.308 20.4728 98.4128 21.951 97.8028C23.4292 97.1928 25.0131 96.8801 26.6122 96.8825Z" fill="white" stroke="#020064" stroke-width="3" stroke-linecap="round" stroke-linejoin="round"/>
<path d="M109.063 26.6122C109.063 33.1397 111.657 39.3999 116.272 44.0156C120.888 48.6312 127.148 51.2243 133.676 51.2243C140.203 51.2243 146.463 48.6312 151.079 44.0156C155.695 39.3999 158.288 33.1397 158.288 26.6122C158.288 20.0846 155.695 13.8244 151.079 9.20874C146.463 4.59306 140.203 2.00001 133.676 2.00001C127.148 2.00001 120.888 4.59306 116.272 9.20874C111.657 13.8244 109.063 20.0846 109.063 26.6122Z" fill="white" stroke="#020064" stroke-width="3" stroke-linecap="round" stroke-linejoin="round"/>
<path d="M149.639 33.0008C149.634 32.3948 149.418 31.8094 149.03 31.3442C148.642 30.8789 148.104 30.5624 147.509 30.4485V28.7447C147.509 25.3577 146.164 22.1095 143.769 19.7145C141.374 17.3196 138.125 15.9741 134.739 15.9741C131.352 15.9741 128.103 17.3196 125.708 19.7145C123.313 22.1095 121.968 25.3577 121.968 28.7447V30.4485C121.346 30.5632 120.787 30.9002 120.395 31.3965C120.004 31.8929 119.806 32.5147 119.839 33.1462C119.871 33.7777 120.133 34.3757 120.574 34.8288C121.015 35.2819 121.606 35.5592 122.236 35.6089C122.834 38.483 124.404 41.0633 126.682 42.9156C128.959 44.7679 131.805 45.7791 134.741 45.7791C137.676 45.7791 140.522 44.7679 142.8 42.9156C145.077 41.0633 146.647 38.483 147.246 35.6089C147.897 35.549 148.503 35.2488 148.946 34.7667C149.388 34.2846 149.635 33.6551 149.639 33.0008Z" fill="white" stroke="#020064" stroke-width="3" stroke-linecap="round" stroke-linejoin="round"/>
<path d="M149.639 33.0008C149.634 32.3948 149.418 31.8094 149.03 31.3442C148.642 30.8789 148.104 30.5624 147.509 30.4485V28.7447C147.509 25.3577 146.164 22.1095 143.769 19.7145C141.374 17.3196 138.125 15.9741 134.739 15.9741C131.352 15.9741 128.103 17.3196 125.708 19.7145C123.313 22.1095 121.968 25.3577 121.968 28.7447V30.4485C121.346 30.5632 120.787 30.9002 120.395 31.3965C120.004 31.8929 119.806 32.5147 119.839 33.1462C119.871 33.7777 120.133 34.3757 120.574 34.8288C121.015 35.2819 121.606 35.5592 122.236 35.6089C122.834 38.483 124.404 41.0633 126.682 42.9156C128.959 44.7679 131.805 45.7791 134.741 45.7791C137.676 45.7791 140.522 44.7679 142.8 42.9156C145.077 41.0633 146.647 38.483 147.246 35.6089C147.897 35.549 148.503 35.2488 148.946 34.7667C149.388 34.2846 149.635 33.6551 149.639 33.0008V33.0008Z" stroke="#020064" stroke-width="3" stroke-linecap="round" stroke-linejoin="round"/>
<path d="M128.354 30.3368C128.354 30.7602 128.523 31.1663 128.822 31.4658C129.121 31.7652 129.528 31.9334 129.951 31.9334C130.374 31.9334 130.781 31.7652 131.08 31.4658C131.379 31.1663 131.548 30.7602 131.548 30.3368C131.548 29.9134 131.379 29.5073 131.08 29.2078C130.781 28.9084 130.374 28.7402 129.951 28.7402C129.528 28.7402 129.121 28.9084 128.822 29.2078C128.523 29.5073 128.354 29.9134 128.354 30.3368Z" fill="#020064"/>
<path d="M137.932 30.3368C137.932 30.7602 138.1 31.1663 138.399 31.4658C138.699 31.7652 139.105 31.9334 139.528 31.9334C139.952 31.9334 140.358 31.7652 140.657 31.4658C140.957 31.1663 141.125 30.7602 141.125 30.3368C141.125 29.9134 140.957 29.5073 140.657 29.2078C140.358 28.9084 139.952 28.7402 139.528 28.7402C139.105 28.7402 138.699 28.9084 138.399 29.2078C138.1 29.5073 137.932 29.9134 137.932 30.3368Z" fill="#020064"/>
<path d="M126.226 34.5929C126.226 35.0164 126.395 35.4225 126.694 35.7219C126.993 36.0213 127.4 36.1895 127.823 36.1895C128.246 36.1895 128.652 36.0213 128.952 35.7219C129.251 35.4225 129.42 35.0164 129.42 34.5929C129.42 34.1695 129.251 33.7634 128.952 33.4639C128.652 33.1645 128.246 32.9963 127.823 32.9963C127.4 32.9963 126.993 33.1645 126.694 33.4639C126.395 33.7634 126.226 34.1695 126.226 34.5929Z" fill="#B0D9FF"/>
<path d="M140.06 34.5929C140.06 35.0164 140.228 35.4225 140.527 35.7219C140.827 36.0213 141.233 36.1895 141.656 36.1895C142.08 36.1895 142.486 36.0213 142.785 35.7219C143.085 35.4225 143.253 35.0164 143.253 34.5929C143.253 34.1695 143.085 33.7634 142.785 33.4639C142.486 33.1645 142.08 32.9963 141.656 32.9963C141.233 32.9963 140.827 33.1645 140.527 33.4639C140.228 33.7634 140.06 34.1695 140.06 34.5929Z" fill="#B0D9FF"/>
<path d="M131.548 38.4158C132.493 39.046 133.604 39.3823 134.74 39.3823C135.876 39.3823 136.986 39.046 137.932 38.4158" stroke="#020064" stroke-width="3" stroke-linecap="round" stroke-linejoin="round"/>
<path d="M120.905 19.1562V28.7335C120.905 29.0156 121.017 29.2862 121.216 29.4859C121.416 29.6856 121.686 29.7981 121.968 29.7986H123.044L127.287 19.1562H120.905Z" fill="white" stroke="#020064" stroke-width="3" stroke-linecap="round" stroke-linejoin="round"/>
<path d="M148.574 20.2258C148.574 17.968 147.676 15.8029 146.08 14.2066C144.483 12.6103 142.318 11.7136 140.06 11.7136H130.482C130.076 11.7136 129.678 11.5971 129.336 11.3779C128.993 11.1586 128.721 10.8458 128.551 10.4765C128.439 10.229 128.263 10.0158 128.041 9.85877C127.819 9.70179 127.56 9.6067 127.289 9.58327H125.481C123.85 9.55175 122.266 10.1244 121.033 11.1909C119.8 12.2575 119.005 13.7425 118.802 15.36C118.643 17.03 119.147 18.6954 120.206 19.9965C121.264 21.2977 122.793 22.13 124.46 22.3136C124.761 23.4434 125.394 24.4568 126.278 25.2227C127.161 25.9887 128.254 26.4719 129.415 26.6099H131.545C131.629 26.6091 131.711 26.581 131.778 26.5297C131.844 26.4784 131.892 26.4068 131.914 26.3258C131.937 26.2447 131.932 26.1586 131.901 26.0805C131.87 26.0024 131.814 25.9366 131.742 25.8931C130.775 25.3157 130.071 24.3842 129.779 23.2961C129.746 23.1867 129.739 23.071 129.759 22.9584C129.778 22.8457 129.824 22.7393 129.892 22.6474C129.96 22.5556 130.049 22.4811 130.151 22.4297C130.253 22.3783 130.366 22.3516 130.48 22.3516H139.176C139.455 22.3516 139.732 22.4068 139.99 22.5141C140.249 22.6214 140.483 22.7786 140.681 22.9768L146.444 28.738H147.507C147.647 28.7383 147.785 28.7109 147.915 28.6575C148.044 28.6041 148.162 28.5256 148.261 28.4266C148.36 28.3277 148.438 28.2101 148.492 28.0808C148.545 27.9514 148.572 27.8128 148.572 27.6728L148.574 20.2258Z" fill="white"/>
<path d="M148.574 20.2258C148.574 17.968 147.676 15.8029 146.08 14.2066C144.483 12.6103 142.318 11.7136 140.06 11.7136H130.482C130.076 11.7136 129.678 11.5971 129.336 11.3779C128.993 11.1586 128.721 10.8458 128.551 10.4765C128.439 10.229 128.263 10.0158 128.041 9.85877C127.819 9.70179 127.56 9.6067 127.289 9.58327H125.481C123.85 9.55175 122.266 10.1244 121.033 11.1909C119.8 12.2575 119.005 13.7425 118.802 15.36C118.643 17.03 119.147 18.6954 120.206 19.9965C121.264 21.2977 122.793 22.13 124.46 22.3136C124.761 23.4434 125.394 24.4568 126.278 25.2227C127.161 25.9887 128.254 26.4719 129.415 26.6099H131.545C131.629 26.6091 131.711 26.581 131.778 26.5297C131.844 26.4784 131.892 26.4068 131.914 26.3258C131.937 26.2447 131.932 26.1586 131.901 26.0805C131.87 26.0024 131.814 25.9366 131.742 25.8931C130.775 25.3157 130.071 24.3842 129.779 23.2961C129.746 23.1867 129.739 23.071 129.759 22.9584C129.778 22.8457 129.824 22.7393 129.892 22.6474C129.96 22.5556 130.049 22.4811 130.151 22.4297C130.253 22.3783 130.366 22.3516 130.48 22.3516H139.176C139.455 22.3516 139.732 22.4068 139.99 22.5141C140.249 22.6214 140.483 22.7786 140.681 22.9768L146.444 28.738H147.507C147.647 28.7383 147.785 28.7109 147.915 28.6575C148.044 28.6041 148.162 28.5256 148.261 28.4266C148.36 28.3277 148.438 28.2101 148.492 28.0808C148.545 27.9514 148.572 27.8128 148.572 27.6728L148.574 20.2258Z" stroke="#020064" stroke-width="3" stroke-linecap="round" stroke-linejoin="round"/>
<path d="M166.348 143.04L175.283 134.105L190.919 149.742L181.984 158.677L166.348 143.04Z" fill="white" stroke="#020064" stroke-width="3" stroke-linecap="round" stroke-linejoin="round"/>
<path d="M221.296 188.641L220.87 189.067C219.144 190.78 216.811 191.741 214.38 191.741C211.948 191.741 209.616 190.78 207.889 189.067L179.675 160.842C179.105 160.267 178.784 159.489 178.784 158.679C178.784 157.868 179.105 157.09 179.675 156.515L188.755 147.435C189.33 146.865 190.107 146.545 190.917 146.545C191.728 146.545 192.505 146.865 193.08 147.435L221.296 175.649C222.153 176.5 222.833 177.512 223.297 178.627C223.761 179.742 224 180.938 224 182.145C224 183.353 223.761 184.548 223.297 185.663C222.833 186.778 222.153 187.79 221.296 188.641Z" fill="#B0D9FF"/>
<path d="M221.296 188.641L220.87 189.067C219.144 190.78 216.811 191.741 214.38 191.741C211.948 191.741 209.616 190.78 207.889 189.067L179.675 160.842C179.105 160.267 178.784 159.489 178.784 158.679C178.784 157.868 179.105 157.09 179.675 156.515L188.755 147.435C189.33 146.865 190.107 146.545 190.917 146.545C191.728 146.545 192.505 146.865 193.08 147.435L221.296 175.649C222.153 176.5 222.833 177.512 223.297 178.627C223.761 179.742 224 180.938 224 182.145C224 183.353 223.761 184.548 223.297 185.663C222.833 186.778 222.153 187.79 221.296 188.641Z" stroke="#020064" stroke-width="3" stroke-linecap="round" stroke-linejoin="round"/>
<path d="M99.1211 134.266C105.681 144.986 116.231 152.661 128.451 155.603C140.67 158.545 153.557 156.512 164.277 149.952C174.998 143.392 182.673 132.842 185.615 120.622C188.556 108.403 186.523 95.5159 179.963 84.7955C173.403 74.0752 162.853 66.3999 150.634 63.4582C138.415 60.5166 125.527 62.5494 114.807 69.1096C104.087 75.6698 96.4114 86.2199 93.4698 98.439C90.5281 110.658 92.5609 123.546 99.1211 134.266Z" fill="white" stroke="#020064" stroke-width="3" stroke-linecap="round" stroke-linejoin="round"/>
<path d="M166.349 82.7252C171.65 88.0271 175.261 94.782 176.723 102.136C178.186 109.489 177.435 117.112 174.565 124.038C171.696 130.965 166.837 136.886 160.603 141.051C154.369 145.217 147.039 147.44 139.542 147.44C132.044 147.44 124.715 145.217 118.481 141.051C112.246 136.886 107.387 130.965 104.518 124.038C101.649 117.112 100.898 109.489 102.36 102.136C103.823 94.782 107.433 88.0271 112.735 82.7252C116.255 79.2047 120.434 76.412 125.034 74.5067C129.633 72.6014 134.563 71.6207 139.542 71.6207C144.52 71.6207 149.45 72.6014 154.05 74.5067C158.649 76.412 162.829 79.2047 166.349 82.7252Z" fill="#B0D9FF"/>
<path d="M138.628 127.702C134.272 127.727 129.996 128.877 126.215 131.041C122.434 133.205 119.276 136.309 117.049 140.053C123.345 144.689 130.921 147.267 138.738 147.433C146.556 147.599 154.234 145.346 160.722 140.982C158.574 136.986 155.388 133.643 151.5 131.306C147.612 128.969 143.165 127.724 138.628 127.702Z" fill="white"/>
<path d="M138.628 127.702C134.272 127.727 129.996 128.877 126.215 131.041C122.434 133.205 119.276 136.309 117.049 140.053C123.345 144.689 130.921 147.267 138.738 147.433C146.556 147.599 154.234 145.346 160.722 140.982C158.574 136.986 155.388 133.643 151.5 131.306C147.612 128.969 143.165 127.724 138.628 127.702V127.702Z" stroke="#020064" stroke-width="3" stroke-linejoin="round"/>
<path d="M146.118 128.919C145.716 128.791 145.31 128.677 144.901 128.575C144.428 128.456 144.008 128.182 143.709 127.797C143.41 127.412 143.248 126.937 143.249 126.45V118.907H134.368V126.365C134.368 126.855 134.203 127.332 133.899 127.717C133.596 128.103 133.172 128.375 132.695 128.491C132.182 128.616 131.67 128.754 131.166 128.913L131.114 128.98C131.246 130.885 132.095 132.67 133.492 133.973C134.888 135.277 136.727 136.002 138.637 136.002C140.548 136.002 142.387 135.277 143.783 133.973C145.179 132.67 146.029 130.885 146.16 128.98L146.118 128.919Z" fill="white" stroke="#020064" stroke-width="3" stroke-linecap="round" stroke-linejoin="round"/>
<path d="M158.623 100.214C158.623 105.544 156.505 110.656 152.736 114.425C148.968 118.194 143.856 120.311 138.526 120.311C133.196 120.311 128.084 118.194 124.315 114.425C120.546 110.656 118.429 105.544 118.429 100.214C118.429 89.1027 124.101 80.3851 129.871 78.7282C130.351 78.59 130.86 78.5836 131.344 78.7098C131.828 78.8359 132.27 79.0898 132.622 79.445C138.87 85.7287 158.623 77.8975 158.623 100.214Z" fill="white"/>
<path d="M158.623 100.214C158.623 105.544 156.505 110.656 152.736 114.425C148.968 118.194 143.856 120.311 138.526 120.311C133.196 120.311 128.084 118.194 124.315 114.425C120.546 110.656 118.429 105.544 118.429 100.214C118.429 89.1027 124.101 80.3851 129.871 78.7282C130.351 78.59 130.86 78.5836 131.344 78.7098C131.828 78.8359 132.27 79.0898 132.622 79.445C138.87 85.7287 158.623 77.8975 158.623 100.214Z" stroke="#020064" stroke-width="3" stroke-linecap="round" stroke-linejoin="round"/>
<path d="M155.291 105.238L151.917 106.913L149.483 98.3964C149.256 97.5785 148.724 96.8786 147.997 96.4402C147.27 96.0017 146.403 95.858 145.573 96.0384C140.936 97.143 136.104 97.143 131.467 96.0384C130.638 95.8585 129.771 96.0025 129.044 96.4409C128.317 96.8792 127.785 97.5788 127.557 98.3964L125.123 106.913L121.801 105.238C117.02 105.238 117.335 113.612 122.636 113.612H122.651C123.701 117.008 125.81 119.979 128.67 122.089C131.531 124.199 134.991 125.337 138.546 125.337C142.1 125.337 145.561 124.199 148.421 122.089C151.282 119.979 153.391 117.008 154.44 113.612C159.748 113.612 160.07 105.238 155.291 105.238Z" fill="white" stroke="#020064" stroke-width="3" stroke-linecap="round" stroke-linejoin="round"/>
<path d="M131.353 105.658C131.353 106.183 131.562 106.686 131.933 107.057C132.304 107.428 132.807 107.637 133.332 107.637C133.856 107.637 134.36 107.428 134.731 107.057C135.102 106.686 135.31 106.183 135.31 105.658C135.31 105.133 135.102 104.63 134.731 104.259C134.36 103.888 133.856 103.68 133.332 103.68C132.807 103.68 132.304 103.888 131.933 104.259C131.562 104.63 131.353 105.133 131.353 105.658Z" fill="#020064"/>
<path d="M141.813 105.658C141.813 106.183 142.021 106.686 142.392 107.057C142.763 107.428 143.266 107.637 143.791 107.637C144.316 107.637 144.819 107.428 145.19 107.057C145.561 106.686 145.77 106.183 145.77 105.658C145.77 105.133 145.561 104.63 145.19 104.259C144.819 103.888 144.316 103.68 143.791 103.68C143.266 103.68 142.763 103.888 142.392 104.259C142.021 104.63 141.813 105.133 141.813 105.658Z" fill="#020064"/>
<path d="M130.19 110.263C130.19 110.594 130.092 110.918 129.908 111.193C129.723 111.469 129.462 111.683 129.156 111.81C128.849 111.937 128.513 111.97 128.188 111.905C127.863 111.84 127.564 111.681 127.33 111.446C127.096 111.212 126.937 110.913 126.872 110.588C126.808 110.263 126.841 109.926 126.969 109.62C127.096 109.314 127.311 109.053 127.586 108.869C127.862 108.685 128.186 108.587 128.517 108.588C128.737 108.588 128.955 108.631 129.158 108.715C129.361 108.8 129.546 108.923 129.701 109.079C129.856 109.234 129.979 109.419 130.063 109.622C130.147 109.825 130.19 110.043 130.19 110.263Z" fill="#B0D9FF"/>
<path d="M150.287 110.263C150.287 110.594 150.189 110.918 150.005 111.193C149.821 111.468 149.559 111.683 149.253 111.81C148.947 111.937 148.61 111.97 148.285 111.905C147.961 111.841 147.662 111.681 147.428 111.447C147.194 111.213 147.034 110.914 146.97 110.589C146.905 110.264 146.938 109.928 147.065 109.622C147.192 109.316 147.406 109.054 147.682 108.87C147.957 108.686 148.281 108.588 148.612 108.588C149.056 108.588 149.482 108.764 149.796 109.078C150.111 109.392 150.287 109.818 150.287 110.263Z" fill="#B0D9FF"/>
<path d="M134.381 115.695C135.621 116.521 137.077 116.962 138.567 116.962C140.057 116.962 141.513 116.521 142.753 115.695" stroke="#020064" stroke-width="3" stroke-linecap="round" stroke-linejoin="round"/>
<path d="M166.349 82.7252C171.65 88.0271 175.261 94.782 176.723 102.136C178.186 109.489 177.435 117.112 174.565 124.038C171.696 130.965 166.837 136.886 160.603 141.051C154.369 145.217 147.039 147.44 139.542 147.44C132.044 147.44 124.715 145.217 118.481 141.051C112.246 136.886 107.387 130.965 104.518 124.038C101.649 117.112 100.898 109.489 102.36 102.136C103.823 94.782 107.433 88.0271 112.735 82.7252C116.255 79.2047 120.434 76.412 125.034 74.5067C129.633 72.6014 134.563 71.6207 139.542 71.6207C144.52 71.6207 149.45 72.6014 154.05 74.5067C158.649 76.412 162.829 79.2047 166.349 82.7252V82.7252Z" stroke="#020064" stroke-width="3" stroke-linecap="round" stroke-linejoin="round"/>
<path d="M66.7079 155.68C66.7079 159.832 68.3576 163.815 71.294 166.751C74.2304 169.688 78.213 171.337 82.3657 171.337C86.5184 171.337 90.5011 169.688 93.4375 166.751C96.3739 163.815 98.0235 159.832 98.0235 155.68C98.0235 151.527 96.3739 147.544 93.4375 144.608C90.5011 141.672 86.5184 140.022 82.3657 140.022C78.213 140.022 74.2304 141.672 71.294 144.608C68.3576 147.544 66.7079 151.527 66.7079 155.68Z" fill="white" stroke="#020064" stroke-width="3" stroke-linecap="round" stroke-linejoin="round"/>
<path d="M77.3281 155.316C77.3281 156.652 77.8588 157.933 78.8036 158.878C79.7483 159.823 81.0297 160.353 82.3657 160.353C83.7018 160.353 84.9831 159.823 85.9279 158.878C86.8726 157.933 87.4034 156.652 87.4034 155.316V152.797C87.4034 151.461 86.8726 150.179 85.9279 149.235C84.9831 148.29 83.7018 147.759 82.3657 147.759C81.0297 147.759 79.7483 148.29 78.8036 149.235C77.8588 150.179 77.3281 151.461 77.3281 152.797V155.316Z" fill="white" stroke="#020064" stroke-width="3" stroke-linecap="round" stroke-linejoin="round"/>
<path d="M92.834 167.323C89.9604 169.905 86.2335 171.333 82.3702 171.333C78.5069 171.333 74.78 169.905 71.9063 167.323C72.7662 165.259 74.2173 163.495 76.0769 162.254C77.9366 161.013 80.1218 160.35 82.3575 160.348C84.5933 160.346 86.7796 161.006 88.6414 162.244C90.5032 163.482 91.9573 165.242 92.8206 167.305" fill="#B0D9FF"/>
<path d="M92.834 167.323C89.9604 169.905 86.2335 171.333 82.3702 171.333C78.5069 171.333 74.78 169.905 71.9063 167.323C72.7662 165.259 74.2173 163.495 76.0769 162.254C77.9366 161.013 80.1218 160.35 82.3575 160.348C84.5933 160.346 86.7796 161.006 88.6414 162.244C90.5032 163.482 91.9573 165.242 92.8206 167.305" stroke="#020064" stroke-width="3" stroke-linecap="round" stroke-linejoin="round"/>
<path d="M77.3705 152.147C77.5027 151.131 77.9415 150.18 78.6284 149.42C79.3152 148.66 80.2174 148.127 81.2148 147.893C82.2121 147.659 83.257 147.734 84.2103 148.109C85.1636 148.485 85.9799 149.141 86.5504 149.992C85.3583 151.148 83.8749 151.959 82.2583 152.339C80.6417 152.718 78.9524 152.652 77.3705 152.147Z" fill="#B0D9FF" stroke="#020064" stroke-width="3" stroke-linecap="round" stroke-linejoin="round"/>
<path d="M39.8092 42.7233C39.8092 46.876 41.4588 50.8586 44.3952 53.795C47.3316 56.7314 51.3143 58.3811 55.467 58.3811C59.6197 58.3811 63.6023 56.7314 66.5387 53.795C69.4751 50.8586 71.1248 46.876 71.1248 42.7233C71.1248 38.5705 69.4751 34.5879 66.5387 31.6515C63.6023 28.7151 59.6197 27.0654 55.467 27.0654C51.3143 27.0654 47.3316 28.7151 44.3952 31.6515C41.4588 34.5879 39.8092 38.5705 39.8092 42.7233Z" fill="white" stroke="#020064" stroke-width="3" stroke-linecap="round" stroke-linejoin="round"/>
<path d="M50.4271 42.3593C50.4549 43.6773 50.9979 44.9319 51.9399 45.8542C52.8818 46.7766 54.1476 47.2931 55.4659 47.2931C56.7842 47.2931 58.05 46.7766 58.9919 45.8542C59.9339 44.9319 60.4769 43.6773 60.5047 42.3593V39.8404C60.4769 38.5225 59.9339 37.2678 58.9919 36.3455C58.05 35.4232 56.7842 34.9066 55.4659 34.9066C54.1476 34.9066 52.8818 35.4232 51.9399 36.3455C50.9979 37.2678 50.4549 38.5225 50.4271 39.8404V42.3593Z" fill="white" stroke="#020064" stroke-width="3" stroke-linecap="round" stroke-linejoin="round"/>
<path d="M65.9331 54.3684C63.0588 56.9491 59.3321 58.3767 55.4692 58.3767C51.6063 58.3767 47.8797 56.9491 45.0054 54.3684C45.8652 52.3046 47.3163 50.5413 49.176 49.3003C51.0357 48.0593 53.2209 47.3962 55.4566 47.3942C57.6923 47.3923 59.8786 48.0518 61.7404 49.2896C63.6022 50.5274 65.0563 52.2882 65.9197 54.3505" fill="#B0D9FF"/>
<path d="M65.9331 54.3684C63.0588 56.9491 59.3321 58.3767 55.4692 58.3767C51.6063 58.3767 47.8797 56.9491 45.0054 54.3684C45.8652 52.3046 47.3163 50.5413 49.176 49.3003C51.0357 48.0593 53.2209 47.3962 55.4566 47.3942C57.6923 47.3923 59.8786 48.0518 61.7404 49.2896C63.6022 50.5274 65.0563 52.2882 65.9197 54.3505" stroke="#020064" stroke-width="3" stroke-linecap="round" stroke-linejoin="round"/>
<path d="M50.4718 39.1906C50.6032 38.1743 51.0417 37.2222 51.7286 36.4616C52.4156 35.7011 53.3182 35.1682 54.316 34.9342C55.3138 34.7002 56.3592 34.7763 57.3126 35.1522C58.266 35.5282 59.082 36.186 59.6516 37.038C58.4592 38.1935 56.9757 39.0039 55.3592 39.383C53.7426 39.7621 52.0535 39.6956 50.4718 39.1906Z" fill="#B0D9FF" stroke="#020064" stroke-width="3" stroke-linecap="round" stroke-linejoin="round"/>
</svg>
